<svg xmlns="http://www.w3.org/2000/svg" width="24" height="24" fill="none" xmlns:v="https://vecta.io/nano"><g clip-path="url(#A)"><path d="M24 12c0-6.627-5.373-12-12-12S0 5.373 0 12c0 5.99 4.388 10.954 10.125 11.854v-8.385H7.078V12h3.047V9.356c0-3.007 1.792-4.669 4.533-4.669 1.313 0 2.686.234 2.686.234v2.953h-1.513c-1.491 0-1.956.925-1.956 1.875V12h3.328l-.532 3.469h-2.796v8.385C19.612 22.954 24 17.99 24 12z" fill="#d8645a"/></g><defs><clipPath id="A"><path fill="#fff" d="M0 0h24v24H0z"/></clipPath></defs></svg>