<svg xmlns="http://www.w3.org/2000/svg" width="20" height="20" fill="none" xmlns:v="https://vecta.io/nano"><path d="M3.768 10.141l1.898-.691a.55.55 0 0 1 .199-.035H18.03a.58.58 0 0 1 .586.586v8.242c0 .973-.785 1.758-1.758 1.758H5.139c-.973 0-1.758-.785-1.758-1.758v-7.551a.58.58 0 0 1 .387-.551z" fill="#fc1a40"/><path d="M3.381 10.691v7.551c0 .973.785 1.758 1.758 1.758h5.859V9.414H5.866a.55.55 0 0 0-.199.035l-1.898.691a.58.58 0 0 0-.387.551z" fill="#c60034"/><path d="M3.592 3.82c.199-.809.797-1.441 1.605-1.699.797-.246 1.652-.07 2.273.492l1.359 1.195.269-1.793c.129-.82.656-1.512 1.441-1.84.152-.059.305-.106.457-.129a2.33 2.33 0 0 1 1.852.41 2.38 2.38 0 0 1 .961 2.25c-.129.867-.715 1.605-1.547 1.898l-1.266.457-1.559.574-2.719.996c-.27.094-.551.141-.82.141a2.37 2.37 0 0 1-1.582-.609 2.38 2.38 0 0 1-.727-2.344z" fill="#fe9923"/><path d="M4.319 6.164a2.37 2.37 0 0 0 1.582.609c.269 0 .551-.047.82-.141l2.707-.996 1.57-.574V.046c-.152.023-.305.07-.457.129-.785.328-1.312 1.02-1.441 1.84l-.269 1.793-1.359-1.195c-.621-.562-1.477-.738-2.273-.492-.809.258-1.406.891-1.605 1.699a2.38 2.38 0 0 0 .727 2.344z" fill="#fe8821"/><path d="M1.378 9.145l.797 2.203c.094.234.316.375.551.375a.55.55 0 0 0 .199-.035l6.059-2.203.551-1.816 1.465.328 1.289.293 6.059-2.203c.305-.117.457-.457.352-.75l-.809-2.203c-.152-.445-.48-.797-.902-.996s-.902-.223-1.348-.059l-4.641 1.688-.316.117L9.381 6.18c-.023 0-.527-.281-1.02-.551l-.984-.551-4.945 1.805c-.445.164-.797.492-.996.914s-.223.902-.059 1.348z" fill="#ff3e75"/><path d="M1.378 9.144l.797 2.203c.094.234.316.375.551.375a.55.55 0 0 0 .199-.035l6.059-2.203.551-1.816 1.465.328v-4.23l-.316.117L9.381 6.18c-.023 0-.527-.281-1.02-.551l-.984-.551-4.945 1.805c-.445.164-.797.492-.996.914s-.223.902-.059 1.348z" fill="#fc1a40"/><path d="M12.756 9.414V20H9.241V9.414h3.516zm-2.074-5.531l.316.867 1.289 3.539-1.289.469-1.465.527-.551.199-1.606-4.406 3.305-1.195z" fill="#fcbf29"/><path d="M9.241 9.414h1.758V20H9.241V9.414zM7.378 5.078l1.606 4.406.551-.199L11 8.758V4.75l-.316-.867-3.305 1.195z" fill="#fe9923"/></svg>