<svg xmlns="http://www.w3.org/2000/svg" width="24" height="24" fill="none" xmlns:v="https://vecta.io/nano"><g clip-path="url(#A)"><path d="M7.55 21.75c9.054 0 14.008-7.503 14.008-14.008 0-.211-.005-.427-.014-.638A10 10 0 0 0 24 4.556a9.71 9.71 0 0 1-2.826.773 4.95 4.95 0 0 0 2.165-2.723c-.966.573-2.023.977-3.126 1.195a4.93 4.93 0 0 0-5.916-.969 4.93 4.93 0 0 0-2.478 5.458c-1.957-.098-3.872-.607-5.62-1.492S2.91 4.67 1.673 3.15a4.93 4.93 0 0 0 1.523 6.57 4.93 4.93 0 0 1-2.231-.614v.061a4.92 4.92 0 0 0 3.951 4.828c-.724.198-1.484.227-2.221.084.315.978.927 1.834 1.751 2.447s1.819.954 2.847.975c-1.744 1.37-3.898 2.113-6.116 2.109C.783 19.61.39 19.586 0 19.539a13.97 13.97 0 0 0 7.55 2.212z" fill="#d8645a"/></g><defs><clipPath id="A"><path fill="#fff" d="M0 0h24v24H0z"/></clipPath></defs></svg>