<svg xmlns="http://www.w3.org/2000/svg" width="24" height="24" fill="none" xmlns:v="https://vecta.io/nano"><path d="M23.761 7.2s-.234-1.655-.956-2.381c-.914-.956-1.936-.961-2.405-1.017l-8.395-.244h-.009L3.6 3.801c-.469.056-1.491.061-2.405 1.017C.473 5.545.244 7.2.244 7.2S0 9.145 0 11.086v1.819c0 1.941.239 3.886.239 3.886s.234 1.655.952 2.381c.914.956 2.114.923 2.648 1.026 1.922.183 8.161.239 8.161.239l8.4-.248c.469-.056 1.491-.061 2.405-1.017.722-.727.956-2.381.956-2.381S24 14.85 24 12.905v-1.819c0-1.941-.239-3.886-.239-3.886zM9.52 15.112V8.367l6.483 3.384-6.483 3.361z" fill="#d8645a"/></svg>